<svg width="652" height="800" viewBox="0 0 652 800" fill="none" xmlns="http://www.w3.org/2000/svg">
<path d="M642.444 257.778H420.222C405.496 257.778 393.555 245.839 393.555 231.111V8.88906C393.555 3.98125 389.575 0 384.666 0H27.3332C12.6066 0 0.666016 11.9391 0.666016 26.6672V773.334C0.666016 788.061 12.6051 800.002 27.3332 800.002H624.666C639.393 800.002 651.333 788.062 651.333 773.334V266.667C651.333 261.758 647.353 257.778 642.444 257.778ZM521.557 634.667H130.444C115.718 634.667 103.777 622.728 103.777 608C103.777 593.272 115.716 581.333 130.444 581.333H521.555C536.282 581.333 548.222 593.272 548.222 608C548.222 622.728 536.283 634.667 521.557 634.667ZM521.557 528H130.444C115.718 528 103.777 516.061 103.777 501.333C103.777 486.605 115.716 474.666 130.444 474.666H521.555C536.282 474.666 548.222 486.605 548.222 501.333C548.222 516.061 536.283 528 521.557 528ZM521.557 423.111H130.444C115.718 423.111 103.777 411.172 103.777 396.444C103.777 381.717 115.716 369.777 130.444 369.777H521.555C536.282 369.777 548.222 381.716 548.222 396.444C548.222 411.172 536.283 423.111 521.557 423.111Z" fill="#202020"/>
</svg>
