<svg width="800" height="800" viewBox="0 0 800 800" fill="none" xmlns="http://www.w3.org/2000/svg">
<path d="M722.5 235C722.5 232.5 725 230 725 227.5C725 227.5 725 227.5 725 225C725 225 725 225 725 222.5C725 220 725 217.5 725 215C725 215 725 215 725 212.5C725 210 722.5 207.5 722.5 205C720 202.5 720 202.5 717.5 200L442.5 25C435 20 422.5 20 415 25L90 250L87.5 252.5C87.5 252.5 87.5 252.5 85 252.5C82.5 255 82.5 257.5 80 260C80 260 80 260 80 262.5C75 270 75 272.5 75 275V425V575C75 582.5 80 592.5 87.5 595L362.5 770C367.5 772.5 372.5 775 375 775C380 775 385 772.5 390 770L715 545C720 540 725 535 725 527.5C725 520 722.5 512.5 717.5 507.5C695 485 690 452.5 705 422.5L722.5 385C722.5 382.5 725 380 725 377.5V375C725 372.5 725 367.5 722.5 365V362.5C722.5 360 720 357.5 717.5 355C695 332.5 690 300 705 270L722.5 235ZM665 370L375 570L125 412.5V322.5L362.5 472.5C367.5 475 372.5 477.5 375 477.5C380 477.5 385 475 390 472.5L647.5 295C645 320 650 345 665 370ZM375 720L125 562.5V472.5L362.5 622.5C367.5 625 372.5 627.5 375 627.5C380 627.5 385 625 390 622.5L647.5 445C645 472.5 650 500 665 522.5L375 720Z" fill="#202020"/>
</svg>
