<svg width="800" height="800" viewBox="0 0 800 800" fill="none" xmlns="http://www.w3.org/2000/svg">
<g clip-path="url(#clip0_95_2)">
<path d="M177.778 422.222V244.444H111.111C93.43 244.444 76.4731 251.468 63.9707 263.971C51.4682 276.473 44.4445 293.43 44.4445 311.111V711.111C44.4775 715.238 45.6593 719.274 47.8573 722.768C50.0553 726.261 53.1826 729.073 56.8889 730.889C60.4595 732.513 64.3964 733.162 68.2994 732.772C72.2025 732.382 75.9327 730.965 79.1111 728.667L193.556 644.444H492.222C500.645 644.693 509.028 643.211 516.855 640.088C524.681 636.965 531.782 632.269 537.719 626.29C543.657 620.311 548.303 613.176 551.371 605.329C554.439 597.481 555.863 589.087 555.556 580.667V555.556H311.111C275.749 555.556 241.835 541.508 216.83 516.503C191.825 491.498 177.778 457.584 177.778 422.222Z" fill="#202020"/>
<path d="M688.889 88.8889H311.111C293.43 88.8889 276.473 95.9127 263.971 108.415C251.468 120.918 244.444 137.874 244.444 155.556V422.222C244.444 439.903 251.468 456.86 263.971 469.363C276.473 481.865 293.43 488.889 311.111 488.889H612.222L718.444 571.333C721.602 573.668 725.322 575.124 729.226 575.554C733.129 575.983 737.077 575.37 740.667 573.778C744.448 571.977 747.644 569.144 749.885 565.605C752.126 562.066 753.322 557.966 753.333 553.778V155.556C753.343 138.253 746.625 121.624 734.599 109.184C722.573 96.7433 706.182 89.4657 688.889 88.8889Z" fill="#202020"/>
</g>
<defs>
<clipPath id="clip0_95_2">
<rect width="800" height="800" fill="white"/>
</clipPath>
</defs>
</svg>
