<svg width="800" height="800" viewBox="0 0 800 800" fill="none" xmlns="http://www.w3.org/2000/svg">
<path d="M700 666.667C700 684.348 692.976 701.305 680.474 713.807C667.971 726.309 651.014 733.333 633.333 733.333H166.667C148.986 733.333 132.029 726.309 119.526 713.807C107.024 701.305 100 684.348 100 666.667C100.331 605.938 121.38 547.141 159.667 500C170.201 487.114 185.175 478.635 201.644 476.23C218.113 473.824 234.886 477.666 248.667 487C293.259 517.295 345.924 533.492 399.833 533.492C453.743 533.492 506.408 517.295 551 487C564.808 477.569 581.655 473.671 598.202 476.079C614.749 478.487 629.786 487.025 640.333 500C678.62 547.141 699.669 605.938 700 666.667ZM400 466.667C439.556 466.667 478.224 454.937 511.114 432.96C544.004 410.984 569.638 379.748 584.776 343.203C599.913 306.658 603.874 266.445 596.157 227.649C588.44 188.852 569.392 153.216 541.421 125.245C513.451 97.2747 477.814 78.2266 439.018 70.5095C400.222 62.7925 360.009 66.7532 323.463 81.8907C286.918 97.0282 255.682 122.663 233.706 155.553C211.73 188.442 200 227.11 200 266.667C200 319.71 221.071 370.581 258.579 408.088C296.086 445.595 346.957 466.667 400 466.667Z" fill="#202020"/>
</svg>
