<svg width="800" height="800" viewBox="0 0 800 800" fill="none" xmlns="http://www.w3.org/2000/svg">
<g clip-path="url(#clip0_86_18)">
<path d="M683.333 100H116.667C107.826 100 99.3476 103.512 93.0964 109.763C86.8451 116.014 83.3333 124.493 83.3333 133.333V533.333C83.3333 542.174 86.8451 550.652 93.0964 556.904C99.3476 563.155 107.826 566.667 116.667 566.667H683.333C692.174 566.667 700.652 563.155 706.903 556.904C713.155 550.652 716.667 542.174 716.667 533.333V133.333C716.667 124.493 713.155 116.014 706.903 109.763C700.652 103.512 692.174 100 683.333 100ZM356.667 410C360.29 413.207 363.13 417.202 364.969 421.677C366.807 426.153 367.596 430.99 367.274 435.818C366.953 440.646 365.529 445.336 363.112 449.528C360.695 453.72 357.35 457.302 353.333 460C346.581 464.985 338.196 467.239 329.854 466.313C321.512 465.386 313.827 461.346 308.333 455L210 356.667C206.767 353.7 204.186 350.094 202.42 346.078C200.654 342.061 199.742 337.721 199.742 333.333C199.742 328.946 200.654 324.606 202.42 320.589C204.186 316.572 206.767 312.966 210 310L308.333 210C314.331 204.497 321.926 201.045 330.016 200.146C338.107 199.247 346.273 200.947 353.333 205C357.379 207.871 360.733 211.608 363.151 215.94C365.569 220.272 366.989 225.089 367.308 230.039C367.628 234.99 366.838 239.949 364.997 244.556C363.156 249.162 360.31 253.3 356.667 256.667L280 333.333L356.667 410ZM590 356.667L491.667 455C486.173 461.346 478.488 465.386 470.146 466.313C461.804 467.239 453.419 464.985 446.667 460C442.65 457.302 439.305 453.72 436.888 449.528C434.471 445.336 433.047 440.646 432.725 435.818C432.404 430.99 433.192 426.153 435.031 421.677C436.87 417.202 439.71 413.207 443.333 410L520 333.333L443.333 256.667C439.69 253.3 436.844 249.162 435.003 244.556C433.162 239.949 432.372 234.99 432.692 230.039C433.011 225.089 434.431 220.272 436.849 215.94C439.267 211.608 442.621 207.871 446.667 205C453.726 200.947 461.893 199.247 469.984 200.146C478.074 201.045 485.668 204.497 491.667 210L590 310C593.233 312.966 595.814 316.572 597.58 320.589C599.346 324.606 600.258 328.946 600.258 333.333C600.258 337.721 599.346 342.061 597.58 346.078C595.814 350.094 593.233 353.7 590 356.667Z" fill="#202020"/>
<path d="M733.333 633.333H66.6666C57.826 633.333 49.3476 636.845 43.0964 643.096C36.8451 649.348 33.3333 657.826 33.3333 666.667C33.3333 675.507 36.8451 683.986 43.0964 690.237C49.3476 696.488 57.826 700 66.6666 700H733.333C742.174 700 750.652 696.488 756.903 690.237C763.155 683.986 766.667 675.507 766.667 666.667C766.667 657.826 763.155 649.348 756.903 643.096C750.652 636.845 742.174 633.333 733.333 633.333Z" fill="#202020"/>
</g>
<defs>
<clipPath id="clip0_86_18">
<rect width="800" height="800" fill="white"/>
</clipPath>
</defs>
</svg>
