<svg width="800" height="800" viewBox="0 0 800 800" fill="none" xmlns="http://www.w3.org/2000/svg">
<g clip-path="url(#clip0_86_26)">
<path d="M790.37 281.903L436.352 118.944C424.869 113.655 412.638 110.986 400 110.986C387.362 110.986 375.134 113.655 363.648 118.944L9.62969 281.903C3.77813 284.608 0 290.503 0 296.945C0 303.387 3.77813 309.283 9.62969 311.987L363.648 474.947C375.131 480.236 387.362 482.917 400 482.917C412.638 482.917 424.869 480.236 436.355 474.947L715.748 346.344V475.845C704.661 477.095 696.014 486.533 696.014 497.936C696.014 507.872 702.589 516.473 711.961 519.214L693.067 643.887H780.061L761.17 519.214C770.539 516.473 777.114 507.872 777.114 497.936C777.114 486.533 768.467 477.095 757.38 475.845V327.176L790.373 311.987C796.223 309.283 800.003 303.387 800.003 296.945C800.003 290.503 796.222 284.608 790.37 281.903Z" fill="#202020"/>
<path d="M400 541.923C382.428 541.923 365.402 538.187 349.397 530.823L176.239 451.109V609.919C176.239 644.784 281.592 689.014 400 689.014C518.409 689.014 623.764 644.783 623.764 609.919V451.109L450.597 530.823C434.601 538.187 417.578 541.923 400 541.923Z" fill="#202020"/>
</g>
<defs>
<clipPath id="clip0_86_26">
<rect width="800" height="800" fill="white"/>
</clipPath>
</defs>
</svg>
