<svg width="800" height="800" viewBox="0 0 800 800" fill="none" xmlns="http://www.w3.org/2000/svg">
<path d="M747.626 250.561C734.017 183.667 742.705 43.5981 511.073 6.66243C279.502 -30.3091 70.8194 87.2008 123.311 344.028C123.311 390.84 30.6205 463.509 52.9537 488.074C75.2855 512.64 113.183 513.599 113.183 513.599C113.183 513.599 88.5477 560.411 99.6269 573.338C110.697 586.267 141.501 580.736 141.501 580.736C141.501 580.736 112.879 601.36 112.879 617.359C112.879 633.377 161.207 654.645 161.207 654.645C161.207 654.645 152.344 743.226 224.918 737.084C297.49 730.944 309.712 710.443 309.712 710.443L331.243 800H612.129L602.254 605.355C602.253 605.373 774.74 418.11 747.626 250.561ZM638.335 355.962L560.032 373.461L525.275 342.196L537.575 310.931H638.335V355.962ZM634.706 85.5258L692.633 146.906L634.706 195.55H602.289V164.283L620.818 140.554L618.514 100.896L634.706 85.5258ZM602.289 57.7135L598.834 143.816L568.736 188.988L549.002 181.642L551.62 129.737L500.953 113.894L544.397 48.3779L602.289 57.7135ZM406.423 117.071L407.296 45.5181L482.006 46.1457L517.18 61.7791L494.604 97.4074L476.075 123.736L531.645 141.131V177.021L520.077 209.42L448.246 214.061V201.343L434.76 195.55L421.613 236.167L386.43 250.003L338.797 215.824L359.063 179.917L388.026 189.757L392.937 172.38L377.61 160.796L388.183 140.521L448.246 160.796L466.2 152.682L406.423 117.071ZM272.209 143.416C275.681 143.416 342.871 143.416 342.871 143.416L287.274 119.112L304.067 90.1488L386.428 58.1498V108.103L330.116 108.853L368.336 131.848L332.42 201.325H265.247C265.264 201.341 268.727 143.416 272.209 143.416ZM266.782 215.823H316.001L379.693 259.599L339.155 275.789L266.782 215.823ZM359.079 318.31V278.93L382.249 266.194L440.166 290.516L476.038 302.1L480.679 284.13L434.373 266.194L437.828 234.927L507.338 237.231L568.718 201.341L630.098 219.87L694.968 172.378L729.724 231.456L646.325 237.231L632.436 273.139L670.646 277.762L644.004 265.026L649.797 246.496L724.297 244.037L718.416 308.801L649.639 309.185L618.512 282.404L574.475 299.206L540.173 297.899L569.87 269.668L503.272 266.632L527.019 296.31L506.169 342.634H394.985L359.079 318.31ZM535.168 428.928L472.444 363.482C480.574 363.482 516.464 353.048 516.464 353.048L569.907 412.701L535.168 428.928Z" fill="#202020"/>
</svg>
