<svg width="520" height="520" viewBox="0 0 520 520" fill="none" xmlns="http://www.w3.org/2000/svg">
<g clip-path="url(#clip0_86_35)">
<mask id="mask0_86_35" style="mask-type:luminance" maskUnits="userSpaceOnUse" x="0" y="0" width="520" height="520">
<path d="M520 0H0V520H520V0Z" fill="white"/>
</mask>
<g mask="url(#mask0_86_35)">
<path d="M-0.5 65.4751V454.55C-0.5 491.275 28.4 520.175 65.125 520.175H454.2C472.175 520.175 489.35 511.575 500.3 500.65C512.025 488.925 519.825 474.075 519.825 454.55V65.4751C519.825 28.7501 490.925 -0.149902 454.2 -0.149902H65.125C45.6 -0.149902 30.75 7.6751 19.025 19.3751C8.075 30.3251 -0.5 47.5001 -0.5 65.4751ZM69.825 117.025C69.825 92.0251 90.15 70.1501 115.15 70.1501C140.925 70.1501 162.025 92.0251 162.025 117.025C162.025 142.8 140.925 163.125 115.15 163.125C90.15 163.125 69.825 142.8 69.825 117.025ZM195.6 438.125V199.85C195.6 194.375 201.075 189.7 204.975 189.7H271.375C280.75 189.7 280.75 200.65 280.75 207.675C299.5 188.925 323.725 184.225 348.725 184.225C409.675 184.225 448.725 213.125 448.725 277.2V438.15C448.725 443.625 444.025 448.3 439.35 448.3H370.6C365.125 448.3 361.225 442.825 361.225 438.15V292.825C361.225 268.6 354.2 255.325 326.85 255.325C292.475 255.325 283.875 277.975 283.875 308.45V438.15C283.875 443.625 278.4 448.3 272.925 448.3H204.95C201.05 448.3 195.575 442.825 195.575 438.15L195.6 438.125ZM71.375 438.125V199.85C71.375 194.375 76.85 189.7 80.75 189.7H148.725C154.975 189.7 158.875 193.6 158.875 199.85V438.125C158.875 443.6 154.175 448.275 148.725 448.275H80.75C76.05 448.275 71.375 442.8 71.375 438.125Z" fill="#202020"/>
</g>
</g>
<defs>
<clipPath id="clip0_86_35">
<rect width="520" height="520" fill="white"/>
</clipPath>
</defs>
</svg>
