<svg width="800" height="800" viewBox="0 0 800 800" fill="none" xmlns="http://www.w3.org/2000/svg">
<path d="M635.616 10.9589H164.384C79.6494 10.9589 10.9589 79.6495 10.9589 164.384V635.616C10.9589 720.351 79.6494 789.041 164.384 789.041H635.616C720.351 789.041 789.041 720.351 789.041 635.616V164.384C789.041 79.6495 720.351 10.9589 635.616 10.9589Z" fill="#202020"/>
<path d="M400 130.75C546.137 130.75 665.074 247.029 669.063 391.978L669.167 399.5V426.375C669.167 484.772 628.184 533.875 574.958 533.875C543.383 533.875 516.117 516.595 499.159 490.346C474.575 517.099 439.25 533.875 400 533.875C325.672 533.875 265.417 473.713 265.417 399.5C265.417 325.287 325.672 265.125 400 265.125C472.372 265.125 531.402 322.162 534.459 393.671L534.583 399.5V426.375C534.583 457.034 553.856 480.125 574.958 480.125C595.006 480.125 613.401 459.285 615.191 430.915L615.333 426.375V399.5C615.333 280.759 518.925 184.5 400 184.5C281.075 184.5 184.667 280.759 184.667 399.5C184.667 518.241 281.075 614.5 400 614.5C431.307 614.5 461.62 607.842 489.431 595.145C502.951 588.973 518.921 594.913 525.103 608.411C531.284 621.91 525.336 637.856 511.816 644.028C477.014 659.916 439.071 668.25 400 668.25C251.343 668.25 130.833 547.926 130.833 399.5C130.833 251.073 251.343 130.75 400 130.75ZM400 318.875C355.403 318.875 319.25 354.972 319.25 399.5C319.25 444.028 355.403 480.125 400 480.125C444.597 480.125 480.75 444.028 480.75 399.5C480.75 354.972 444.597 318.875 400 318.875Z" fill="white"/>
</svg>
