<svg width="800" height="800" viewBox="0 0 800 800" fill="none" xmlns="http://www.w3.org/2000/svg">
<g clip-path="url(#clip0_0_1)">
<path d="M404.124 189.374C290.563 189.374 198.573 280.73 198.573 393.656C198.573 438.065 213.164 479.937 237.906 513.561L211.895 589.691L291.197 564.314C323.553 585.884 362.887 597.938 404.758 597.938C518.319 597.938 610.944 506.582 610.944 393.656C610.309 280.73 517.684 189.374 404.124 189.374ZM524.663 478.033C519.588 491.99 494.845 505.313 484.06 506.582C473.275 507.851 473.275 515.464 411.737 491.991C350.833 467.883 312.133 406.344 308.961 401.903C305.789 398.097 284.219 369.548 284.219 340.365C284.219 311.182 299.445 296.59 305.155 290.88C310.864 285.17 317.209 283.267 321.015 283.267C324.822 283.267 329.263 283.902 332.435 283.902C336.241 283.902 340.682 281.998 345.757 294.052C350.833 306.106 362.887 335.289 364.155 338.462C365.424 341.634 366.693 344.806 364.79 348.612C362.887 352.419 361.618 354.956 359.08 358.763C355.908 361.935 352.736 366.376 350.198 368.914C347.026 372.086 343.854 375.258 347.661 380.967C351.467 386.677 363.521 406.344 381.285 422.205C404.124 442.506 423.791 448.85 429.5 452.022C435.21 455.194 439.017 454.56 442.189 450.753C445.995 446.947 457.415 433.624 461.221 427.28C465.028 421.57 469.469 422.205 474.544 424.108C480.254 426.011 509.437 440.603 515.781 443.775C521.491 446.947 525.932 448.216 527.201 450.753C529.104 452.022 529.104 464.076 524.663 478.033Z" fill="#262626"/>
<path d="M598.89 0.3172H200.476C90.0872 0.3172 0 90.4044 0 200.793V599.841C0 709.596 90.0872 799.683 200.476 799.683H599.524C709.913 799.683 800 709.596 800 599.207V200.793C799.366 90.4044 709.278 0.3172 598.89 0.3172ZM404.124 636.638C360.983 636.638 321.015 625.853 285.488 606.186L149.722 649.326L194.132 519.27C171.927 482.474 159.239 439.334 159.239 393.656C159.239 259.159 268.993 150.674 404.124 150.674C539.255 150.674 649.009 259.159 649.009 393.656C649.009 528.152 539.255 636.638 404.124 636.638Z" fill="#262626"/>
</g>
<defs>
<clipPath id="clip0_0_1">
<rect width="800" height="800" fill="white"/>
</clipPath>
</defs>
</svg>
